<svg width="14" height="15" viewBox="0 0 14 15" fill="none" xmlns="http://www.w3.org/2000/svg">
<path d="M13.4664 6.36688L7.46636 1.03354C7.19969 0.833545 6.86636 0.833545 6.59969 1.03354L0.599693 6.36688C0.333026 6.63355 0.266359 7.03355 0.533026 7.30021C0.799692 7.56688 1.19969 7.63355 1.46636 7.36688L1.66636 7.10021V13.5002C1.66636 13.9002 1.93303 14.1669 2.33303 14.1669H11.6664C12.0664 14.1669 12.333 13.9002 12.333 13.5002V7.10021L12.533 7.30021C12.7997 7.56688 13.1997 7.50021 13.4664 7.23355C13.733 7.03355 13.733 6.56688 13.4664 6.36688ZM6.99969 6.83355C7.99969 6.83355 8.79969 7.63354 8.79969 8.63354C8.79969 9.63354 7.99969 10.4335 6.99969 10.4335C5.99969 10.4335 5.19969 9.63354 5.19969 8.63354C5.19969 7.63354 5.99969 6.83355 6.99969 6.83355ZM3.66636 12.8335C3.66636 12.7669 3.66636 12.7669 3.73303 12.7002C5.19969 10.9002 7.86636 10.5669 9.66636 12.0335C9.93303 12.2335 10.133 12.4335 10.333 12.7002C10.333 12.7002 10.333 12.7669 10.3997 12.8335H3.66636Z" fill="#17505C"/>
</svg>
