<svg width="13" height="15" viewBox="0 0 13 15" fill="none" xmlns="http://www.w3.org/2000/svg">
<path d="M11.7758 4.83309L7.77578 1.32643C7.4091 0.998457 6.9344 0.817139 6.44245 0.817139C5.95049 0.817139 5.47579 0.998457 5.10911 1.32643L1.10911 4.83309C0.897358 5.02248 0.728379 5.2548 0.613427 5.51459C0.498475 5.77438 0.440188 6.05568 0.442446 6.33976V12.1664C0.442446 12.6969 0.65316 13.2056 1.02823 13.5806C1.40331 13.9557 1.91201 14.1664 2.44245 14.1664H10.4424C10.9729 14.1664 11.4816 13.9557 11.8567 13.5806C12.2317 13.2056 12.4424 12.6969 12.4424 12.1664V6.33309C12.4438 6.05014 12.385 5.77012 12.2701 5.51155C12.1552 5.25297 11.9867 5.02173 11.7758 4.83309ZM7.77578 12.8331H5.10911V9.49976C5.10911 9.32295 5.17935 9.15338 5.30437 9.02836C5.4294 8.90333 5.59897 8.83309 5.77578 8.83309H7.10911C7.28592 8.83309 7.45549 8.90333 7.58052 9.02836C7.70554 9.15338 7.77578 9.32295 7.77578 9.49976V12.8331ZM11.1091 12.1664C11.1091 12.3432 11.0389 12.5128 10.9138 12.6378C10.7888 12.7629 10.6193 12.8331 10.4424 12.8331H9.10911V9.49976C9.10911 8.96933 8.8984 8.46062 8.52333 8.08555C8.14825 7.71047 7.63954 7.49976 7.10911 7.49976H5.77578C5.24535 7.49976 4.73664 7.71047 4.36157 8.08555C3.98649 8.46062 3.77578 8.96933 3.77578 9.49976V12.8331H2.44245C2.26564 12.8331 2.09607 12.7629 1.97104 12.6378C1.84602 12.5128 1.77578 12.3432 1.77578 12.1664V6.33309C1.7759 6.23844 1.79617 6.14489 1.83526 6.05868C1.87434 5.97247 1.93133 5.89557 2.00245 5.83309L6.00245 2.33309C6.1241 2.22621 6.28051 2.16727 6.44245 2.16727C6.60438 2.16727 6.76079 2.22621 6.88245 2.33309L10.8824 5.83309C10.9536 5.89557 11.0106 5.97247 11.0496 6.05868C11.0887 6.14489 11.109 6.23844 11.1091 6.33309V12.1664Z" fill="#FF914D"/>
</svg>
