<svg width="15" height="15" viewBox="0 0 15 15" fill="none" xmlns="http://www.w3.org/2000/svg">
<path d="M10.6666 4.99935C10.0698 4.9991 9.48221 5.14673 8.95636 5.42904C8.90838 5.30266 8.82308 5.19386 8.71179 5.11712C8.6005 5.04037 8.4685 4.99929 8.33331 4.99935H5.66665C5.57909 4.9993 5.49237 5.01651 5.41147 5.05C5.33056 5.08348 5.25705 5.13259 5.19513 5.19451C5.13322 5.25642 5.08411 5.32993 5.05063 5.41084C5.01714 5.49175 4.99993 5.57846 4.99998 5.66602V13.666C4.99993 13.7536 5.01714 13.8403 5.05062 13.9212C5.08411 14.0021 5.13321 14.0756 5.19513 14.1375C5.25705 14.1995 5.33056 14.2486 5.41146 14.282C5.49237 14.3155 5.57908 14.3327 5.66665 14.3327H8.33331C8.42088 14.3327 8.50759 14.3155 8.5885 14.282C8.6694 14.2486 8.74292 14.1995 8.80483 14.1375C8.86675 14.0756 8.91585 14.0021 8.94934 13.9212C8.98282 13.8403 9.00003 13.7536 8.99998 13.666V9.99936C8.99998 9.82254 9.07022 9.65297 9.19524 9.52795C9.32027 9.40293 9.48984 9.33269 9.66665 9.33269C9.84346 9.33269 10.013 9.40293 10.1381 9.52795C10.2631 9.65297 10.3333 9.82254 10.3333 9.99936V13.666C10.3333 13.7536 10.3505 13.8403 10.384 13.9212C10.4174 14.0021 10.4665 14.0756 10.5285 14.1375C10.5904 14.1995 10.6639 14.2486 10.7448 14.282C10.8257 14.3155 10.9124 14.3327 11 14.3327H13.6666C13.7542 14.3327 13.8409 14.3155 13.9218 14.282C14.0027 14.2486 14.0763 14.1995 14.1382 14.1375C14.2001 14.0756 14.2492 14.0021 14.2827 13.9212C14.3162 13.8403 14.3334 13.7536 14.3333 13.666V8.66602C14.3321 7.69393 13.9454 6.762 13.258 6.07463C12.5707 5.38726 11.6387 5.00056 10.6666 4.99935ZM13 12.9994H11.6666V9.99936C11.6666 9.46892 11.4559 8.96021 11.0809 8.58514C10.7058 8.21007 10.1971 7.99935 9.66665 7.99935C9.13621 7.99935 8.62751 8.21007 8.25243 8.58514C7.87736 8.96021 7.66665 9.46892 7.66665 9.99936V12.9994H6.33331V6.33269H7.66665V6.80144C7.66673 6.93957 7.70969 7.07428 7.78961 7.18694C7.86953 7.29961 7.98246 7.38468 8.1128 7.43042C8.24315 7.47615 8.38447 7.48029 8.51727 7.44226C8.65006 7.40423 8.76777 7.32591 8.85415 7.21811C9.15333 6.83813 9.5637 6.56107 10.028 6.4256C10.4922 6.29014 10.9872 6.30303 11.4438 6.46249C11.9004 6.62195 12.2958 6.92001 12.5748 7.31505C12.8537 7.7101 13.0024 8.1824 13 8.66602V12.9994ZM3.66665 4.99935H0.999981C0.912419 4.9993 0.825706 5.01651 0.744799 5.05C0.663893 5.08348 0.59038 5.13259 0.528465 5.19451C0.466549 5.25642 0.417445 5.32993 0.383959 5.41084C0.350474 5.49175 0.333264 5.57846 0.333314 5.66602V13.666C0.333263 13.7536 0.350472 13.8403 0.383957 13.9212C0.417443 14.0021 0.466547 14.0756 0.528463 14.1375C0.590379 14.1995 0.663892 14.2486 0.744798 14.282C0.825705 14.3155 0.912418 14.3327 0.999981 14.3327H3.66665C3.75421 14.3327 3.84092 14.3155 3.92183 14.282C4.00274 14.2486 4.07625 14.1995 4.13817 14.1375C4.20008 14.0756 4.24919 14.0021 4.28267 13.9212C4.31616 13.8403 4.33336 13.7536 4.33331 13.666V5.66602C4.33336 5.57846 4.31615 5.49175 4.28267 5.41084C4.24918 5.32993 4.20008 5.25642 4.13816 5.19451C4.07625 5.13259 4.00273 5.08348 3.92183 5.05C3.84092 5.01651 3.75421 4.9993 3.66665 4.99935ZM2.99998 12.9994H1.66665V6.33269H2.99998V12.9994ZM2.34308 0.0280209C2.05132 0.0105565 1.75906 0.052619 1.48406 0.151651C1.20907 0.250682 0.957095 0.404613 0.743459 0.604083C0.529822 0.803552 0.358991 1.04439 0.241353 1.31195C0.123715 1.57952 0.0617292 1.86821 0.059165 2.16048C0.0566008 2.45275 0.113512 2.74249 0.226437 3.01208C0.339362 3.28166 0.505942 3.52546 0.716046 3.72865C0.926149 3.93184 1.17539 4.09016 1.4486 4.19401C1.72181 4.29785 2.01329 4.34503 2.30531 4.33269H2.32419C2.61673 4.35006 2.90973 4.30761 3.1853 4.20792C3.46087 4.10823 3.71322 3.9534 3.92693 3.75289C4.14064 3.55238 4.31122 3.3104 4.42825 3.04174C4.54528 2.77308 4.60631 2.48337 4.60759 2.19033C4.60888 1.89728 4.5504 1.60705 4.43573 1.33738C4.32106 1.0677 4.1526 0.824229 3.94066 0.621852C3.72872 0.419474 3.47773 0.262437 3.20305 0.160336C2.92837 0.0582338 2.63575 0.013212 2.34307 0.0280209H2.34308ZM2.3242 2.99935H2.30531C2.19003 3.01335 2.07308 3.00254 1.96231 2.96764C1.85154 2.93274 1.74952 2.87456 1.66308 2.797C1.57664 2.71944 1.50778 2.62429 1.46112 2.51794C1.41447 2.41159 1.39109 2.29649 1.39256 2.18036C1.39256 1.68296 1.76561 1.36135 2.34308 1.36135C2.45955 1.34582 2.57799 1.35543 2.69042 1.38954C2.80286 1.42364 2.90669 1.48144 2.9949 1.55905C3.08312 1.63666 3.15368 1.73227 3.20184 1.83944C3.24999 1.94662 3.27462 2.06287 3.27407 2.18036C3.27407 2.67775 2.90102 2.99935 2.3242 2.99935Z" fill="#A4C1C8"/>
</svg>
