<svg width="14" height="12" viewBox="0 0 14 12" fill="none" xmlns="http://www.w3.org/2000/svg">
<path d="M13.6667 1.86656C13.1656 2.08396 12.6356 2.22767 12.0933 2.29323C12.6655 1.95144 13.0942 1.41375 13.3 0.779896C12.7624 1.09994 12.1739 1.32543 11.56 1.44656C11.1497 1.00161 10.6033 0.705427 10.0065 0.604463C9.40978 0.5035 8.79637 0.603468 8.26254 0.888689C7.7287 1.17391 7.30463 1.62825 7.05684 2.18045C6.80904 2.73266 6.75154 3.35149 6.89334 3.9399C5.80629 3.88491 4.74297 3.60186 3.77245 3.10914C2.80192 2.61641 1.94591 1.92502 1.26001 1.0799C1.01944 1.50001 0.893023 1.97578 0.893343 2.4599C0.89249 2.90948 1.00282 3.35231 1.21451 3.74894C1.42621 4.14557 1.73269 4.4837 2.10668 4.73323C1.672 4.7214 1.2466 4.60476 0.866677 4.39323V4.42656C0.869935 5.05649 1.09067 5.66596 1.49155 6.15187C1.89243 6.63779 2.44885 6.97032 3.06668 7.09323C2.82885 7.16561 2.58193 7.20377 2.33334 7.20656C2.16127 7.20455 1.98963 7.18895 1.82001 7.1599C1.99595 7.70177 2.33643 8.17533 2.79406 8.51467C3.25169 8.85401 3.80373 9.04226 4.37334 9.05323C3.41148 9.81007 2.22393 10.2231 1.00001 10.2266C0.777167 10.2273 0.554501 10.2139 0.333344 10.1866C1.58296 10.9934 3.03922 11.4217 4.52668 11.4199C5.55314 11.4306 6.57143 11.2366 7.52209 10.8493C8.47274 10.462 9.33669 9.88915 10.0635 9.16423C10.7903 8.4393 11.3653 7.57682 11.755 6.62717C12.1448 5.67751 12.3414 4.65971 12.3333 3.63323C12.3333 3.5199 12.3333 3.3999 12.3333 3.2799C12.8565 2.88977 13.3077 2.41151 13.6667 1.86656Z" fill="#FF914D"/>
</svg>
