<svg width="12" height="8" viewBox="0 0 12 8" fill="none" xmlns="http://www.w3.org/2000/svg">
<path d="M11 6.83C10.8126 7.01625 10.5592 7.12079 10.295 7.12079C10.0308 7.12079 9.77736 7.01625 9.59 6.83L6 3.29L2.46 6.83C2.27264 7.01625 2.01919 7.12079 1.755 7.12079C1.49082 7.12079 1.23736 7.01625 1.05 6.83C0.956274 6.73703 0.881879 6.62643 0.83111 6.50457C0.780342 6.38271 0.754204 6.25201 0.754204 6.12C0.754204 5.98798 0.780342 5.85728 0.83111 5.73542C0.881879 5.61356 0.956274 5.50296 1.05 5.41L5.29 1.17C5.38297 1.07627 5.49357 1.00187 5.61543 0.951105C5.73728 0.900336 5.86799 0.874198 6 0.874198C6.13201 0.874198 6.26272 0.900336 6.38458 0.951105C6.50644 1.00187 6.61704 1.07627 6.71 1.17L11 5.41C11.0937 5.50296 11.1681 5.61356 11.2189 5.73542C11.2697 5.85728 11.2958 5.98798 11.2958 6.12C11.2958 6.25201 11.2697 6.38271 11.2189 6.50457C11.1681 6.62643 11.0937 6.73703 11 6.83Z" fill="black"/>
</svg>
