<svg width="28" height="28" viewBox="0 0 28 28" fill="none" xmlns="http://www.w3.org/2000/svg">
<path d="M13.9999 22.1666C14.2307 22.1666 14.4562 22.0981 14.6481 21.9699C14.8399 21.8418 14.9895 21.6595 15.0778 21.4464C15.1661 21.2332 15.1892 20.9986 15.1442 20.7723C15.0992 20.546 14.988 20.3381 14.8249 20.1749C14.6617 20.0118 14.4538 19.9007 14.2275 19.8556C14.0012 19.8106 13.7666 19.8337 13.5535 19.922C13.3403 20.0103 13.1581 20.1599 13.0299 20.3517C12.9017 20.5436 12.8333 20.7692 12.8333 20.9999C12.8333 21.3093 12.9562 21.6061 13.175 21.8249C13.3938 22.0437 13.6905 22.1666 13.9999 22.1666ZM19.8333 22.1666C20.064 22.1666 20.2896 22.0981 20.4814 21.9699C20.6733 21.8418 20.8228 21.6595 20.9111 21.4464C20.9994 21.2332 21.0225 20.9986 20.9775 20.7723C20.9325 20.546 20.8214 20.3381 20.6582 20.1749C20.495 20.0118 20.2872 19.9007 20.0609 19.8556C19.8345 19.8106 19.6 19.8337 19.3868 19.922C19.1736 20.0103 18.9914 20.1599 18.8632 20.3517C18.735 20.5436 18.6666 20.7692 18.6666 20.9999C18.6666 21.3093 18.7895 21.6061 19.0083 21.8249C19.2271 22.0437 19.5238 22.1666 19.8333 22.1666ZM19.8333 17.4999C20.064 17.4999 20.2896 17.4315 20.4814 17.3033C20.6733 17.1751 20.8228 16.9929 20.9111 16.7797C20.9994 16.5665 21.0225 16.3319 20.9775 16.1056C20.9325 15.8793 20.8214 15.6714 20.6582 15.5083C20.495 15.3451 20.2872 15.234 20.0609 15.189C19.8345 15.144 19.6 15.1671 19.3868 15.2554C19.1736 15.3437 18.9914 15.4932 18.8632 15.6851C18.735 15.8769 18.6666 16.1025 18.6666 16.3332C18.6666 16.6427 18.7895 16.9394 19.0083 17.1582C19.2271 17.377 19.5238 17.4999 19.8333 17.4999ZM13.9999 17.4999C14.2307 17.4999 14.4562 17.4315 14.6481 17.3033C14.8399 17.1751 14.9895 16.9929 15.0778 16.7797C15.1661 16.5665 15.1892 16.3319 15.1442 16.1056C15.0992 15.8793 14.988 15.6714 14.8249 15.5083C14.6617 15.3451 14.4538 15.234 14.2275 15.189C14.0012 15.144 13.7666 15.1671 13.5535 15.2554C13.3403 15.3437 13.1581 15.4932 13.0299 15.6851C12.9017 15.8769 12.8333 16.1025 12.8333 16.3332C12.8333 16.6427 12.9562 16.9394 13.175 17.1582C13.3938 17.377 13.6905 17.4999 13.9999 17.4999ZM22.1666 3.4999H20.9999V2.33323C20.9999 2.02381 20.877 1.72707 20.6582 1.50827C20.4394 1.28948 20.1427 1.16656 19.8333 1.16656C19.5238 1.16656 19.2271 1.28948 19.0083 1.50827C18.7895 1.72707 18.6666 2.02381 18.6666 2.33323V3.4999H9.33325V2.33323C9.33325 2.02381 9.21034 1.72707 8.99154 1.50827C8.77275 1.28948 8.476 1.16656 8.16658 1.16656C7.85717 1.16656 7.56042 1.28948 7.34163 1.50827C7.12284 1.72707 6.99992 2.02381 6.99992 2.33323V3.4999H5.83325C4.90499 3.4999 4.01476 3.86865 3.35838 4.52502C2.702 5.1814 2.33325 6.07164 2.33325 6.9999V23.3332C2.33325 24.2615 2.702 25.1517 3.35838 25.8081C4.01476 26.4645 4.90499 26.8332 5.83325 26.8332H22.1666C23.0948 26.8332 23.9851 26.4645 24.6415 25.8081C25.2978 25.1517 25.6666 24.2615 25.6666 23.3332V6.9999C25.6666 6.07164 25.2978 5.1814 24.6415 4.52502C23.9851 3.86865 23.0948 3.4999 22.1666 3.4999ZM23.3333 23.3332C23.3333 23.6427 23.2103 23.9394 22.9915 24.1582C22.7728 24.377 22.476 24.4999 22.1666 24.4999H5.83325C5.52383 24.4999 5.22709 24.377 5.00829 24.1582C4.7895 23.9394 4.66659 23.6427 4.66659 23.3332V12.8332H23.3333V23.3332ZM23.3333 10.4999H4.66659V6.9999C4.66659 6.69048 4.7895 6.39373 5.00829 6.17494C5.22709 5.95615 5.52383 5.83323 5.83325 5.83323H6.99992V6.9999C6.99992 7.30932 7.12284 7.60606 7.34163 7.82486C7.56042 8.04365 7.85717 8.16657 8.16658 8.16657C8.476 8.16657 8.77275 8.04365 8.99154 7.82486C9.21034 7.60606 9.33325 7.30932 9.33325 6.9999V5.83323H18.6666V6.9999C18.6666 7.30932 18.7895 7.60606 19.0083 7.82486C19.2271 8.04365 19.5238 8.16657 19.8333 8.16657C20.1427 8.16657 20.4394 8.04365 20.6582 7.82486C20.877 7.60606 20.9999 7.30932 20.9999 6.9999V5.83323H22.1666C22.476 5.83323 22.7728 5.95615 22.9915 6.17494C23.2103 6.39373 23.3333 6.69048 23.3333 6.9999V10.4999ZM8.16658 17.4999C8.39733 17.4999 8.62289 17.4315 8.81475 17.3033C9.00661 17.1751 9.15614 16.9929 9.24444 16.7797C9.33275 16.5665 9.35585 16.3319 9.31083 16.1056C9.26582 15.8793 9.1547 15.6714 8.99154 15.5083C8.82838 15.3451 8.6205 15.234 8.39419 15.189C8.16788 15.144 7.9333 15.1671 7.72012 15.2554C7.50694 15.3437 7.32473 15.4932 7.19654 15.6851C7.06834 15.8769 6.99992 16.1025 6.99992 16.3332C6.99992 16.6427 7.12284 16.9394 7.34163 17.1582C7.56042 17.377 7.85717 17.4999 8.16658 17.4999ZM8.16658 22.1666C8.39733 22.1666 8.62289 22.0981 8.81475 21.9699C9.00661 21.8418 9.15614 21.6595 9.24444 21.4464C9.33275 21.2332 9.35585 20.9986 9.31083 20.7723C9.26582 20.546 9.1547 20.3381 8.99154 20.1749C8.82838 20.0118 8.6205 19.9007 8.39419 19.8556C8.16788 19.8106 7.9333 19.8337 7.72012 19.922C7.50694 20.0103 7.32473 20.1599 7.19654 20.3517C7.06834 20.5436 6.99992 20.7692 6.99992 20.9999C6.99992 21.3093 7.12284 21.6061 7.34163 21.8249C7.56042 22.0437 7.85717 22.1666 8.16658 22.1666Z" fill="#17505C"/>
</svg>
