<svg width="28" height="28" viewBox="0 0 28 28" fill="none" xmlns="http://www.w3.org/2000/svg">
<path d="M24.045 22.3882C24.7762 21.4082 25.2779 20.2765 25.5133 19.0766C25.7486 17.8767 25.7114 16.6393 25.4046 15.4556C25.0978 14.272 24.5291 13.1724 23.7405 12.2379C22.9519 11.3035 21.9636 10.558 20.8484 10.0566C20.6055 8.65903 20.0472 7.33523 19.216 6.18577C18.3848 5.03632 17.3025 4.09144 16.0514 3.42294C14.8003 2.75445 13.4133 2.37991 11.9958 2.3278C10.5782 2.27569 9.16747 2.54738 7.87066 3.12221C6.57385 3.69705 5.42513 4.55991 4.51178 5.64524C3.59842 6.73056 2.94447 8.0098 2.59961 9.38574C2.25475 10.7617 2.22805 12.1981 2.52154 13.5859C2.81503 14.9737 3.42099 16.2764 4.29338 17.3949L2.67172 19.0049C2.50983 19.169 2.40017 19.3773 2.35657 19.6036C2.31296 19.8299 2.33737 20.0641 2.42672 20.2766C2.51424 20.4896 2.66287 20.672 2.85388 20.8007C3.04489 20.9295 3.26972 20.9988 3.50005 20.9999H10.1384C10.7995 22.3936 11.8418 23.5716 13.1446 24.3975C14.4474 25.2234 15.9575 25.6634 17.5001 25.6666H24.5C24.7304 25.6654 24.9552 25.5961 25.1462 25.4674C25.3372 25.3387 25.4859 25.1563 25.5734 24.9432C25.6627 24.7308 25.6871 24.4966 25.6435 24.2703C25.5999 24.044 25.4903 23.8356 25.3284 23.6716L24.045 22.3882ZM9.33338 17.4999C9.33499 17.8906 9.36619 18.2806 9.42672 18.6666H6.31172L6.72005 18.2699C6.8294 18.1615 6.91619 18.0324 6.97542 17.8902C7.03465 17.7481 7.06515 17.5956 7.06515 17.4416C7.06515 17.2876 7.03465 17.1351 6.97542 16.9929C6.91619 16.8507 6.8294 16.7217 6.72005 16.6132C6.0662 15.9666 5.54784 15.196 5.19528 14.3467C4.84272 13.4973 4.66303 12.5862 4.66672 11.6666C4.66672 9.81006 5.40422 8.02958 6.71697 6.71683C8.02972 5.40407 9.8102 4.66658 11.6667 4.66658C13.1153 4.65787 14.5303 5.10336 15.7126 5.94042C16.895 6.77748 17.7853 7.96402 18.2584 9.33324C18.0017 9.33324 17.7567 9.33324 17.5001 9.33324C15.3341 9.33324 13.2569 10.1937 11.7253 11.7252C10.1938 13.2568 9.33338 15.334 9.33338 17.4999ZM21.6301 23.3332L21.6884 23.3916H17.5001C16.1506 23.3892 14.8437 22.919 13.8021 22.0611C12.7604 21.2032 12.0484 20.0108 11.7873 18.6868C11.5263 17.3629 11.7323 15.9894 12.3703 14.8003C13.0083 13.6112 14.0389 12.6801 15.2864 12.1656C16.5339 11.6511 17.9212 11.585 19.2119 11.9786C20.5027 12.3722 21.6171 13.2011 22.3652 14.3242C23.1134 15.4472 23.449 16.795 23.3149 18.1377C23.1809 19.4805 22.5855 20.7352 21.6301 21.6882C21.4102 21.9036 21.2844 22.1972 21.28 22.5049C21.2807 22.6593 21.312 22.812 21.372 22.9542C21.4321 23.0963 21.5198 23.2252 21.6301 23.3332Z" fill="#17505C"/>
</svg>
