<svg width="28" height="28" viewBox="0 0 28 28" fill="none" xmlns="http://www.w3.org/2000/svg">
<path d="M21.0001 15.3766V11.6666C20.9984 10.0136 20.4118 8.41447 19.3441 7.15249C18.2765 5.89051 16.7967 5.04709 15.1667 4.77159V3.49992C15.1667 3.1905 15.0438 2.89375 14.825 2.67496C14.6062 2.45617 14.3095 2.33325 14.0001 2.33325C13.6907 2.33325 13.3939 2.45617 13.1751 2.67496C12.9563 2.89375 12.8334 3.1905 12.8334 3.49992V4.77159C11.2035 5.04709 9.72369 5.89051 8.65603 7.15249C7.58837 8.41447 7.00176 10.0136 7.00008 11.6666V15.3766C6.31927 15.6173 5.72958 16.0627 5.31184 16.6517C4.89411 17.2407 4.66878 17.9445 4.66675 18.6666V20.9999C4.66675 21.3093 4.78966 21.6061 5.00846 21.8249C5.22725 22.0437 5.524 22.1666 5.83341 22.1666H9.49675C9.76541 23.1552 10.3519 24.0279 11.1658 24.6501C11.9796 25.2723 12.9756 25.6094 14.0001 25.6094C15.0245 25.6094 16.0205 25.2723 16.8344 24.6501C17.6482 24.0279 18.2348 23.1552 18.5034 22.1666H22.1667C22.4762 22.1666 22.7729 22.0437 22.9917 21.8249C23.2105 21.6061 23.3334 21.3093 23.3334 20.9999V18.6666C23.3314 17.9445 23.1061 17.2407 22.6883 16.6517C22.2706 16.0627 21.6809 15.6173 21.0001 15.3766ZM9.33342 11.6666C9.33342 10.4289 9.82508 9.24192 10.7003 8.36675C11.5754 7.49158 12.7624 6.99992 14.0001 6.99992C15.2378 6.99992 16.4247 7.49158 17.2999 8.36675C18.1751 9.24192 18.6667 10.4289 18.6667 11.6666V15.1666H9.33342V11.6666ZM14.0001 23.3333C13.5929 23.3308 13.1934 23.2218 12.8414 23.0171C12.4894 22.8125 12.197 22.5192 11.9934 22.1666H16.0067C15.8032 22.5192 15.5108 22.8125 15.1588 23.0171C14.8067 23.2218 14.4073 23.3308 14.0001 23.3333ZM21.0001 19.8333H7.00008V18.6666C7.00008 18.3572 7.123 18.0604 7.34179 17.8416C7.56058 17.6228 7.85733 17.4999 8.16675 17.4999H19.8334C20.1428 17.4999 20.4396 17.6228 20.6584 17.8416C20.8772 18.0604 21.0001 18.3572 21.0001 18.6666V19.8333Z" fill="#17505C"/>
<rect x="15" y="0.999908" width="12" height="12" rx="6" fill="#FF914D" stroke="white" stroke-width="2"/>
</svg>
