<svg width="28" height="28" viewBox="0 0 28 28" fill="none" xmlns="http://www.w3.org/2000/svg">
<path d="M23.52 5.83324C22.2833 4.59332 20.6439 3.83654 18.8981 3.69961C17.1522 3.56267 15.4149 4.05462 14 5.08658C12.5156 3.98249 10.668 3.48184 8.82924 3.68545C6.99049 3.88907 5.29718 4.78182 4.0903 6.18392C2.88342 7.58603 2.25262 9.39335 2.32493 11.2419C2.39724 13.0905 3.16728 14.843 4.48 16.1466L11.725 23.4032C12.3317 24.0003 13.1488 24.335 14 24.335C14.8512 24.335 15.6683 24.0003 16.275 23.4032L23.52 16.1466C24.8822 14.7761 25.6467 12.9222 25.6467 10.9899C25.6467 9.05759 24.8822 7.20376 23.52 5.83324ZM21.875 14.5366L14.63 21.7816C14.5476 21.8648 14.4494 21.9309 14.3413 21.976C14.2332 22.0211 14.1172 22.0443 14 22.0443C13.8828 22.0443 13.7668 22.0211 13.6587 21.976C13.5506 21.9309 13.4524 21.8648 13.37 21.7816L6.125 14.5016C5.21005 13.5663 4.69771 12.31 4.69771 11.0016C4.69771 9.6932 5.21005 8.43684 6.125 7.50157C7.05734 6.58106 8.3148 6.06491 9.625 6.06491C10.9352 6.06491 12.1926 6.58106 13.125 7.50157C13.2335 7.61092 13.3625 7.69772 13.5047 7.75695C13.6468 7.81618 13.7993 7.84667 13.9533 7.84667C14.1073 7.84667 14.2598 7.81618 14.402 7.75695C14.5442 7.69772 14.6732 7.61092 14.7817 7.50157C15.714 6.58106 16.9715 6.06491 18.2817 6.06491C19.5919 6.06491 20.8493 6.58106 21.7817 7.50157C22.7092 8.42458 23.2383 9.67413 23.2558 10.9825C23.2732 12.291 22.7776 13.5542 21.875 14.5016V14.5366Z" fill="#17505C"/>
</svg>
