<svg width="12" height="16" viewBox="0 0 12 16" fill="none" xmlns="http://www.w3.org/2000/svg">
<path d="M6 7.10001C6.29667 7.10001 6.58668 7.01203 6.83335 6.84721C7.08003 6.68239 7.27229 6.44812 7.38582 6.17403C7.49935 5.89994 7.52906 5.59834 7.47118 5.30737C7.4133 5.0164 7.27044 4.74912 7.06066 4.53934C6.85088 4.32957 6.58361 4.1867 6.29264 4.12883C6.00166 4.07095 5.70006 4.10065 5.42597 4.21419C5.15189 4.32772 4.91762 4.51998 4.7528 4.76665C4.58797 5.01332 4.5 5.30333 4.5 5.60001C4.5 5.99783 4.65804 6.37936 4.93934 6.66066C5.22064 6.94197 5.60218 7.10001 6 7.10001ZM5.4675 12.2825C5.53722 12.3528 5.62017 12.4086 5.71157 12.4467C5.80296 12.4848 5.90099 12.5044 6 12.5044C6.09901 12.5044 6.19704 12.4848 6.28843 12.4467C6.37983 12.4086 6.46278 12.3528 6.5325 12.2825L9.6 9.2075C10.3125 8.49541 10.7977 7.58802 10.9945 6.6001C11.1912 5.61218 11.0905 4.58811 10.7051 3.65742C10.3197 2.72673 9.66703 1.93124 8.82952 1.37155C7.992 0.81186 7.00731 0.513123 6 0.513123C4.99269 0.513123 4.008 0.81186 3.17048 1.37155C2.33297 1.93124 1.68025 2.72673 1.29489 3.65742C0.909528 4.58811 0.808835 5.61218 1.00555 6.6001C1.20226 7.58802 1.68753 8.49541 2.4 9.2075L5.4675 12.2825ZM2.4225 5.255C2.47374 4.72027 2.64376 4.20372 2.92014 3.74309C3.19652 3.28246 3.57229 2.88936 4.02 2.5925C4.60815 2.20633 5.2964 2.00057 6 2.00057C6.7036 2.00057 7.39185 2.20633 7.98 2.5925C8.42472 2.88834 8.79836 3.27906 9.07405 3.73654C9.34973 4.19403 9.52061 4.70693 9.5744 5.23835C9.62819 5.76976 9.56354 6.3065 9.38512 6.80995C9.2067 7.3134 8.91892 7.77105 8.5425 8.15L6 10.6925L3.4575 8.15C3.08064 7.77473 2.7922 7.32015 2.61315 6.81936C2.43411 6.31856 2.36898 5.78414 2.4225 5.255ZM11.25 14H0.75C0.551088 14 0.360322 14.079 0.21967 14.2197C0.0790178 14.3603 0 14.5511 0 14.75C0 14.9489 0.0790178 15.1397 0.21967 15.2803C0.360322 15.421 0.551088 15.5 0.75 15.5H11.25C11.4489 15.5 11.6397 15.421 11.7803 15.2803C11.921 15.1397 12 14.9489 12 14.75C12 14.5511 11.921 14.3603 11.7803 14.2197C11.6397 14.079 11.4489 14 11.25 14Z" fill="#FF914D"/>
</svg>
