<svg width="16" height="15" viewBox="0 0 16 15" fill="none" xmlns="http://www.w3.org/2000/svg">
<path d="M15.361 13.875L15.361 13.875C15.3829 13.913 15.3945 13.9561 15.3945 14C15.3945 14.0439 15.3829 14.087 15.361 14.125C15.3391 14.163 15.3075 14.1946 15.2695 14.2165C15.2315 14.2384 15.1884 14.25 15.1445 14.25H0.855511C0.811639 14.25 0.768529 14.2384 0.730528 14.2165L0.481742 14.6474L0.730525 14.2165C0.692522 14.1946 0.660964 14.163 0.639023 14.125L0.207538 14.3741L0.639022 14.125C0.61708 14.087 0.60553 14.0439 0.60553 14C0.60553 13.9561 0.617082 13.913 0.639023 13.875L0.206011 13.625L0.639027 13.875L7.78351 1.50002C7.78351 1.50001 7.78352 1.5 7.78353 1.49999C7.80547 1.462 7.83702 1.43046 7.87502 1.40852C7.91302 1.38658 7.95613 1.37503 8.00001 1.37503C8.04389 1.37503 8.087 1.38658 8.125 1.40852C8.16301 1.43046 8.19457 1.46202 8.21651 1.50002L15.361 13.875ZM7.25001 10.5H6.75001V11V12.5V13H7.25001H8.75001H9.25001V12.5V11V10.5H8.75001H7.25001ZM7.25001 5.25H6.75001V5.75V9.5V10H7.25001H8.75001H9.25001V9.5V5.75V5.25H8.75001H7.25001Z" fill="#FF914D" stroke="#FF914D"/>
</svg>
