<svg width="21" height="20" viewBox="0 0 21 20" fill="none" xmlns="http://www.w3.org/2000/svg">
<path d="M19.16 2.61006C18.0983 1.54806 16.6907 0.902384 15.1932 0.790439C13.6957 0.678494 12.2078 1.10772 11 2.00006C9.72763 1.0537 8.14396 0.624569 6.56789 0.799095C4.99182 0.973621 3.54041 1.73884 2.50594 2.94064C1.47148 4.14245 0.930793 5.69158 0.992771 7.27607C1.05475 8.86057 1.71479 10.3627 2.83997 11.4801L10.29 18.9301C10.3829 19.0238 10.4935 19.0982 10.6154 19.1489C10.7373 19.1997 10.868 19.2259 11 19.2259C11.132 19.2259 11.2627 19.1997 11.3845 19.1489C11.5064 19.0982 11.617 19.0238 11.71 18.9301L19.16 11.4801C19.7426 10.8978 20.2048 10.2064 20.5202 9.44542C20.8355 8.68445 20.9979 7.86879 20.9979 7.04506C20.9979 6.22133 20.8355 5.40567 20.5202 4.64469C20.2048 3.88371 19.7426 3.19233 19.16 2.61006Z" fill="#EB5757"/>
</svg>
